<svg width="135" height="38" viewBox="0 0 135 38" fill="none" xmlns="http://www.w3.org/2000/svg">
<g clip-path="url(#clip0_259_4411)">
<rect width="50" height="38" fill="black"/>
<path d="M10.09 27V12.15H11.7767V27H10.09ZM21.0336 27H19.3469V13.6533H14.3052V12.15H26.0752V13.6533H21.0336V27ZM33.9812 27.22C32.7712 27.22 31.7506 27 30.9195 26.56C30.0884 26.1078 29.459 25.4722 29.0312 24.6533C28.6034 23.8344 28.3895 22.8689 28.3895 21.7567V12.15H30.1129V21.7567C30.1129 23.0033 30.4429 23.9628 31.1029 24.635C31.7629 25.3072 32.7529 25.6433 34.0729 25.6433C35.4173 25.6433 36.4073 25.2889 37.0429 24.58C37.6784 23.8589 37.9962 22.9239 37.9962 21.775V12.15H39.6829V21.7933C39.6829 22.8444 39.4751 23.7794 39.0595 24.5983C38.644 25.4172 38.0145 26.0589 37.1712 26.5233C36.3279 26.9878 35.2645 27.22 33.9812 27.22Z" fill="white"/>
<mask id="path-2-inside-1_259_4411" fill="white">
<path d="M50 0H135V38H50V0Z"/>
</mask>
<path d="M50 0H135V38H50V0Z" fill="white"/>
<path d="M135 0H138V-3H135V0ZM135 38V41H138V38H135ZM50 0V3H135V0V-3H50V0ZM135 0H132V38H135H138V0H135ZM135 38V35H50V38V41H135V38Z" fill="#3F51B5" fill-opacity="0.2" mask="url(#path-2-inside-1_259_4411)"/>
<path d="M59.3933 27V16H62.3633V27H59.3933ZM60.8783 14.9183C60.4139 14.9183 60.0167 14.7594 59.6867 14.4417C59.3689 14.1117 59.21 13.7144 59.21 13.25C59.21 12.7856 59.3689 12.3944 59.6867 12.0767C60.0167 11.7467 60.4139 11.5817 60.8783 11.5817C61.3428 11.5817 61.7339 11.7467 62.0517 12.0767C62.3817 12.3944 62.5467 12.7856 62.5467 13.25C62.5467 13.7144 62.3817 14.1117 62.0517 14.4417C61.7339 14.7594 61.3428 14.9183 60.8783 14.9183ZM65.1328 27V16H68.0111V17.6317H68.0845C68.4023 17.0328 68.8423 16.5806 69.4045 16.275C69.9667 15.9572 70.6145 15.7983 71.3478 15.7983C72.1545 15.7983 72.8573 15.9939 73.4561 16.385C74.0673 16.7761 74.5439 17.32 74.8861 18.0167C75.2284 18.7133 75.3995 19.5139 75.3995 20.4183V27H72.4295V20.9867C72.4295 20.2167 72.2339 19.6117 71.8428 19.1717C71.4639 18.7317 70.9384 18.5117 70.2661 18.5117C69.6061 18.5117 69.0806 18.7317 68.6895 19.1717C68.2984 19.6117 68.1028 20.2167 68.1028 20.9867V27H65.1328ZM80.7262 27L76.4362 16H79.5162L82.2478 23.48H82.3212L85.0162 16H88.0228L83.7328 27H80.7262ZM89.5359 27V16H92.5059V27H89.5359ZM91.0209 14.9183C90.5565 14.9183 90.1592 14.7594 89.8292 14.4417C89.5115 14.1117 89.3526 13.7144 89.3526 13.25C89.3526 12.7856 89.5115 12.3944 89.8292 12.0767C90.1592 11.7467 90.5565 11.5817 91.0209 11.5817C91.4854 11.5817 91.8765 11.7467 92.1942 12.0767C92.5242 12.3944 92.6892 12.7856 92.6892 13.25C92.6892 13.7144 92.5242 14.1117 92.1942 14.4417C91.8765 14.7594 91.4854 14.9183 91.0209 14.9183ZM98.3554 27C97.5854 27 96.9865 26.8044 96.5587 26.4133C96.1432 26.01 95.9354 25.3989 95.9354 24.58V18.3833H94.2304V16H95.9721V12.7H98.8687V16H101.124V18.3833H98.9054V24.6167H101.344V27H98.3554ZM107.988 27.22C106.937 27.22 106.008 26.9878 105.201 26.5233C104.395 26.0467 103.759 25.3806 103.295 24.525C102.843 23.6572 102.616 22.6367 102.616 21.4633C102.616 20.3022 102.836 19.3 103.276 18.4567C103.729 17.6011 104.352 16.9411 105.146 16.4767C105.941 16.0122 106.851 15.78 107.878 15.78C108.844 15.78 109.705 15.9939 110.463 16.4217C111.233 16.8494 111.838 17.4728 112.278 18.2917C112.73 19.0983 112.956 20.0883 112.956 21.2617V22.2883H105.531C105.629 23.095 105.898 23.7183 106.338 24.1583C106.778 24.5861 107.322 24.8 107.97 24.8C108.483 24.8 108.905 24.6839 109.235 24.4517C109.565 24.2072 109.791 23.8772 109.913 23.4617H112.956C112.81 24.2439 112.504 24.9161 112.04 25.4783C111.575 26.0406 110.995 26.4744 110.298 26.78C109.601 27.0733 108.831 27.22 107.988 27.22ZM105.586 20.2717H110.06C109.962 19.5872 109.718 19.0678 109.326 18.7133C108.935 18.3589 108.459 18.1817 107.896 18.1817C107.322 18.1817 106.827 18.3589 106.411 18.7133C106.008 19.0678 105.733 19.5872 105.586 20.2717ZM119.105 27.22C118.201 27.22 117.4 26.9817 116.704 26.505C116.019 26.0161 115.488 25.3439 115.109 24.4883C114.73 23.6206 114.54 22.6244 114.54 21.5C114.54 20.3633 114.73 19.3672 115.109 18.5117C115.488 17.6439 116.019 16.9717 116.704 16.495C117.4 16.0183 118.201 15.78 119.105 15.78C120.523 15.78 121.531 16.3544 122.13 17.5033H122.204V11.6H125.174V27H122.295V25.4233H122.222C121.586 26.6211 120.548 27.22 119.105 27.22ZM119.912 24.58C120.633 24.58 121.195 24.3478 121.599 23.8833C122.002 23.4189 122.204 22.7894 122.204 21.995V21.005C122.204 20.2106 122.002 19.5811 121.599 19.1167C121.195 18.6522 120.633 18.42 119.912 18.42C119.179 18.42 118.592 18.7011 118.152 19.2633C117.724 19.8133 117.51 20.5589 117.51 21.5C117.51 22.4411 117.724 23.1928 118.152 23.755C118.592 24.305 119.179 24.58 119.912 24.58Z" fill="#3F51B5"/>
</g>
<defs>
<clipPath id="clip0_259_4411">
<rect width="135" height="38" fill="white"/>
</clipPath>
</defs>
</svg>
